<svg width="215" height="57" viewBox="0 0 215 57" fill="none" xmlns="http://www.w3.org/2000/svg">
<rect x="2" y="2" width="211" height="53" rx="26.5" stroke="#7C7EA2" stroke-width="4"/>
<path d="M36.58 34H34.32V20.6H36.42L41.84 28.4L43.16 30.5L43.02 27.96V20.6H45.28V34H43.2L37.64 26.08L36.42 24.18L36.58 26.62V34ZM58.7453 34H49.2653V20.6H58.7453V22.6H51.5253V26.16H57.5053V28.16H51.5253V32H58.7453V34ZM66.5009 34H63.6609L60.1609 20.6H62.7609L64.5009 28.4L65.1009 32.18L65.8809 28.54L67.9809 20.6H70.9009L72.9609 28.54L73.7209 32.18L74.3409 28.4L76.1209 20.6H78.6809L75.1409 34H72.3009L70.2009 26.06L69.4209 22.32L68.6409 26.06L66.5009 34ZM87.5269 34H85.1469L90.3869 20.6H92.9869L98.2269 34H95.7469L94.4669 30.62H88.8069L87.5269 34ZM90.9269 25.04L89.5469 28.66H93.7269L92.3669 25.04L91.6469 22.62L90.9269 25.04ZM102.381 34H100.121V20.6H106.161C108.881 20.6 110.921 22 110.921 24.76C110.921 27 109.381 28.32 107.281 28.56C108.081 28.8 108.621 29.3 109.101 30.14L111.381 34H108.781L106.461 30.02C105.961 29.12 105.281 28.8 104.021 28.8H102.381V34ZM105.941 22.6H102.381V26.96H105.941C107.361 26.96 108.581 26.44 108.581 24.82C108.581 23.12 107.361 22.6 105.941 22.6ZM115.998 34H113.738V20.6H119.778C122.498 20.6 124.538 22 124.538 24.76C124.538 27 122.998 28.32 120.898 28.56C121.698 28.8 122.238 29.3 122.718 30.14L124.998 34H122.398L120.078 30.02C119.578 29.12 118.898 28.8 117.638 28.8H115.998V34ZM119.558 22.6H115.998V26.96H119.558C120.978 26.96 122.198 26.44 122.198 24.82C122.198 23.12 120.978 22.6 119.558 22.6ZM129.615 34H127.355V20.6H129.615V34ZM138.99 34H136.41L131.51 20.6H134.09L136.75 28.42L137.75 32.28L138.77 28.42L141.43 20.6H143.89L138.99 34ZM146.257 34H143.877L149.117 20.6H151.717L156.957 34H154.477L153.197 30.62H147.537L146.257 34ZM149.657 25.04L148.277 28.66H152.457L151.097 25.04L150.377 22.62L149.657 25.04ZM167.971 34H158.851V20.6H161.111V32H167.971V34ZM175.488 34.2C172.928 34.2 170.588 33.28 169.548 31.02L171.148 29.4C171.868 31.36 173.888 32.12 175.528 32.12C176.868 32.12 177.948 31.64 177.948 30.42C177.948 29.12 176.868 28.76 175.128 28.38L173.868 28.1C171.968 27.7 169.948 26.84 169.948 24.3C169.948 21.78 172.128 20.42 174.648 20.42C177.108 20.42 179.068 21.44 180.028 23.28L178.328 24.9C177.588 23.24 176.148 22.52 174.508 22.52C173.228 22.52 172.308 23.12 172.308 24.14C172.308 25.32 173.228 25.74 174.688 26.1L176.188 26.46C178.328 26.98 180.248 27.82 180.248 30.38C180.248 32.8 178.208 34.2 175.488 34.2Z" fill="#7C7EA1"/>
</svg>
