<svg width="231" height="73" viewBox="0 0 231 73" fill="none" xmlns="http://www.w3.org/2000/svg">
<g filter="url(#filter0_d_1_363)">
<rect x="8" y="3" width="215" height="57" rx="28.5" fill="#4A4C6C" shape-rendering="crispEdges"/>
<rect x="10" y="5" width="211" height="53" rx="26.5" stroke="#7C7EA2" stroke-width="4" shape-rendering="crispEdges"/>
<path d="M44.58 37H42.32V23.6H44.42L49.84 31.4L51.16 33.5L51.02 30.96V23.6H53.28V37H51.2L45.64 29.08L44.42 27.18L44.58 29.62V37ZM66.7453 37H57.2653V23.6H66.7453V25.6H59.5253V29.16H65.5053V31.16H59.5253V35H66.7453V37ZM74.5009 37H71.6609L68.1609 23.6H70.7609L72.5009 31.4L73.1009 35.18L73.8809 31.54L75.9809 23.6H78.9009L80.9609 31.54L81.7209 35.18L82.3409 31.4L84.1209 23.6H86.6809L83.1409 37H80.3009L78.2009 29.06L77.4209 25.32L76.6409 29.06L74.5009 37ZM95.5269 37H93.1469L98.3869 23.6H100.987L106.227 37H103.747L102.467 33.62H96.8069L95.5269 37ZM98.9269 28.04L97.5469 31.66H101.727L100.367 28.04L99.6469 25.62L98.9269 28.04ZM110.381 37H108.121V23.6H114.161C116.881 23.6 118.921 25 118.921 27.76C118.921 30 117.381 31.32 115.281 31.56C116.081 31.8 116.621 32.3 117.101 33.14L119.381 37H116.781L114.461 33.02C113.961 32.12 113.281 31.8 112.021 31.8H110.381V37ZM113.941 25.6H110.381V29.96H113.941C115.361 29.96 116.581 29.44 116.581 27.82C116.581 26.12 115.361 25.6 113.941 25.6ZM123.998 37H121.738V23.6H127.778C130.498 23.6 132.538 25 132.538 27.76C132.538 30 130.998 31.32 128.898 31.56C129.698 31.8 130.238 32.3 130.718 33.14L132.998 37H130.398L128.078 33.02C127.578 32.12 126.898 31.8 125.638 31.8H123.998V37ZM127.558 25.6H123.998V29.96H127.558C128.978 29.96 130.198 29.44 130.198 27.82C130.198 26.12 128.978 25.6 127.558 25.6ZM137.615 37H135.355V23.6H137.615V37ZM146.99 37H144.41L139.51 23.6H142.09L144.75 31.42L145.75 35.28L146.77 31.42L149.43 23.6H151.89L146.99 37ZM154.257 37H151.877L157.117 23.6H159.717L164.957 37H162.477L161.197 33.62H155.537L154.257 37ZM157.657 28.04L156.277 31.66H160.457L159.097 28.04L158.377 25.62L157.657 28.04ZM175.971 37H166.851V23.6H169.111V35H175.971V37ZM183.488 37.2C180.928 37.2 178.588 36.28 177.548 34.02L179.148 32.4C179.868 34.36 181.888 35.12 183.528 35.12C184.868 35.12 185.948 34.64 185.948 33.42C185.948 32.12 184.868 31.76 183.128 31.38L181.868 31.1C179.968 30.7 177.948 29.84 177.948 27.3C177.948 24.78 180.128 23.42 182.648 23.42C185.108 23.42 187.068 24.44 188.028 26.28L186.328 27.9C185.588 26.24 184.148 25.52 182.508 25.52C181.228 25.52 180.308 26.12 180.308 27.14C180.308 28.32 181.228 28.74 182.688 29.1L184.188 29.46C186.328 29.98 188.248 30.82 188.248 33.38C188.248 35.8 186.208 37.2 183.488 37.2Z" fill="#F4F4F4"/>
</g>
<defs>
<filter id="filter0_d_1_363" x="0" y="0" width="231" height="73" filterUnits="userSpaceOnUse" color-interpolation-filters="sRGB">
<feFlood flood-opacity="0" result="BackgroundImageFix"/>
<feColorMatrix in="SourceAlpha" type="matrix" values="0 0 0 0 0 0 0 0 0 0 0 0 0 0 0 0 0 0 127 0" result="hardAlpha"/>
<feOffset dy="5"/>
<feGaussianBlur stdDeviation="4"/>
<feComposite in2="hardAlpha" operator="out"/>
<feColorMatrix type="matrix" values="0 0 0 0 0.290196 0 0 0 0 0.298039 0 0 0 0 0.423529 0 0 0 0.4 0"/>
<feBlend mode="normal" in2="BackgroundImageFix" result="effect1_dropShadow_1_363"/>
<feBlend mode="normal" in="SourceGraphic" in2="effect1_dropShadow_1_363" result="shape"/>
</filter>
</defs>
</svg>
