<svg width="250" height="57" viewBox="0 0 250 57" fill="none" xmlns="http://www.w3.org/2000/svg">
<rect x="2" y="2" width="246" height="53" rx="26.5" stroke="#9FA26D" stroke-width="4"/>
<path d="M39.54 34H36.7L33.2 20.6H35.8L37.54 28.4L38.14 32.18L38.92 28.54L41.02 20.6H43.94L46 28.54L46.76 32.18L47.38 28.4L49.16 20.6H51.72L48.18 34H45.34L43.24 26.06L42.46 22.32L41.68 26.06L39.54 34ZM55.9784 34H53.7184V20.6H55.9784V26.16H62.4184V20.6H64.6784V34H62.4184V28.16H55.9784V34ZM68.9448 34H66.5648L71.8048 20.6H74.4048L79.6448 34H77.1648L75.8848 30.62H70.2248L68.9448 34ZM72.3448 25.04L70.9648 28.66H75.1448L73.7848 25.04L73.0648 22.62L72.3448 25.04ZM85.513 34H83.253V22.6H79.153V20.6H89.633V22.6H85.513V34ZM92.482 25.76L92.022 24.58C92.742 24.5 93.182 24.36 93.182 23.7V23.44H92.002V20.6H94.562V23.48C94.562 24.82 93.982 25.6 92.482 25.76ZM103.277 34.2C100.717 34.2 98.3766 33.28 97.3366 31.02L98.9366 29.4C99.6566 31.36 101.677 32.12 103.317 32.12C104.657 32.12 105.737 31.64 105.737 30.42C105.737 29.12 104.657 28.76 102.917 28.38L101.657 28.1C99.7566 27.7 97.7366 26.84 97.7366 24.3C97.7366 21.78 99.9166 20.42 102.437 20.42C104.897 20.42 106.857 21.44 107.817 23.28L106.117 24.9C105.377 23.24 103.937 22.52 102.297 22.52C101.017 22.52 100.097 23.12 100.097 24.14C100.097 25.32 101.017 25.74 102.477 26.1L103.977 26.46C106.117 26.98 108.037 27.82 108.037 30.38C108.037 32.8 105.997 34.2 103.277 34.2ZM121.74 34H119.48V22.6H115.38V20.6H125.86V22.6H121.74V34ZM130.029 34H127.769V20.6H133.809C136.529 20.6 138.569 22 138.569 24.76C138.569 27 137.029 28.32 134.929 28.56C135.729 28.8 136.269 29.3 136.749 30.14L139.029 34H136.429L134.109 30.02C133.609 29.12 132.929 28.8 131.669 28.8H130.029V34ZM133.589 22.6H130.029V26.96H133.589C135.009 26.96 136.229 26.44 136.229 24.82C136.229 23.12 135.009 22.6 133.589 22.6ZM150.866 34H141.386V20.6H150.866V22.6H143.646V26.16H149.626V28.16H143.646V32H150.866V34ZM155.877 34H153.617V20.6H155.717L161.137 28.4L162.457 30.5L162.317 27.96V20.6H164.577V34H162.497L156.937 26.08L155.717 24.18L155.877 26.62V34ZM173.622 34H168.562V20.6H173.622C177.762 20.6 180.002 23.16 180.002 27.3C180.002 31.44 177.782 34 173.622 34ZM173.342 22.6H170.822V32H173.362C176.122 32 177.642 30.66 177.642 27.3C177.642 23.94 176.122 22.6 173.342 22.6ZM185.377 34H183.117V20.6H185.377V34ZM191.631 34H189.371V20.6H191.471L196.891 28.4L198.211 30.5L198.071 27.96V20.6H200.331V34H198.251L192.691 26.08L191.471 24.18L191.631 26.62V34ZM208.946 34.16C205.506 34.16 203.446 31.54 203.446 27.28C203.446 23.34 205.746 20.4 209.906 20.4C212.726 20.4 214.806 21.76 215.726 24.18L213.766 25.58C213.366 23.86 212.086 22.54 209.926 22.54C207.126 22.54 205.846 24.5 205.846 27.28C205.846 30.12 207.146 32.04 209.786 32.04C212.046 32.04 213.046 30.82 213.526 28.96H209.666V27.06H215.786V34H214.346L213.726 28.96C213.626 31.98 211.926 34.16 208.946 34.16Z" fill="#9FA16D"/>
</svg>
