<svg width="266" height="73" viewBox="0 0 266 73" fill="none" xmlns="http://www.w3.org/2000/svg">
<g filter="url(#filter0_d_1_358)">
<rect x="8" y="3" width="250" height="57" rx="28.5" fill="#77794E" shape-rendering="crispEdges"/>
<rect x="10" y="5" width="246" height="53" rx="26.5" stroke="#9FA26D" stroke-width="4" shape-rendering="crispEdges"/>
<path d="M47.54 37H44.7L41.2 23.6H43.8L45.54 31.4L46.14 35.18L46.92 31.54L49.02 23.6H51.94L54 31.54L54.76 35.18L55.38 31.4L57.16 23.6H59.72L56.18 37H53.34L51.24 29.06L50.46 25.32L49.68 29.06L47.54 37ZM63.9784 37H61.7184V23.6H63.9784V29.16H70.4184V23.6H72.6784V37H70.4184V31.16H63.9784V37ZM76.9448 37H74.5648L79.8048 23.6H82.4048L87.6448 37H85.1648L83.8848 33.62H78.2248L76.9448 37ZM80.3448 28.04L78.9648 31.66H83.1448L81.7848 28.04L81.0648 25.62L80.3448 28.04ZM93.513 37H91.253V25.6H87.153V23.6H97.633V25.6H93.513V37ZM100.482 28.76L100.022 27.58C100.742 27.5 101.182 27.36 101.182 26.7V26.44H100.002V23.6H102.562V26.48C102.562 27.82 101.982 28.6 100.482 28.76ZM111.277 37.2C108.717 37.2 106.377 36.28 105.337 34.02L106.937 32.4C107.657 34.36 109.677 35.12 111.317 35.12C112.657 35.12 113.737 34.64 113.737 33.42C113.737 32.12 112.657 31.76 110.917 31.38L109.657 31.1C107.757 30.7 105.737 29.84 105.737 27.3C105.737 24.78 107.917 23.42 110.437 23.42C112.897 23.42 114.857 24.44 115.817 26.28L114.117 27.9C113.377 26.24 111.937 25.52 110.297 25.52C109.017 25.52 108.097 26.12 108.097 27.14C108.097 28.32 109.017 28.74 110.477 29.1L111.977 29.46C114.117 29.98 116.037 30.82 116.037 33.38C116.037 35.8 113.997 37.2 111.277 37.2ZM129.74 37H127.48V25.6H123.38V23.6H133.86V25.6H129.74V37ZM138.029 37H135.769V23.6H141.809C144.529 23.6 146.569 25 146.569 27.76C146.569 30 145.029 31.32 142.929 31.56C143.729 31.8 144.269 32.3 144.749 33.14L147.029 37H144.429L142.109 33.02C141.609 32.12 140.929 31.8 139.669 31.8H138.029V37ZM141.589 25.6H138.029V29.96H141.589C143.009 29.96 144.229 29.44 144.229 27.82C144.229 26.12 143.009 25.6 141.589 25.6ZM158.866 37H149.386V23.6H158.866V25.6H151.646V29.16H157.626V31.16H151.646V35H158.866V37ZM163.877 37H161.617V23.6H163.717L169.137 31.4L170.457 33.5L170.317 30.96V23.6H172.577V37H170.497L164.937 29.08L163.717 27.18L163.877 29.62V37ZM181.622 37H176.562V23.6H181.622C185.762 23.6 188.002 26.16 188.002 30.3C188.002 34.44 185.782 37 181.622 37ZM181.342 25.6H178.822V35H181.362C184.122 35 185.642 33.66 185.642 30.3C185.642 26.94 184.122 25.6 181.342 25.6ZM193.377 37H191.117V23.6H193.377V37ZM199.631 37H197.371V23.6H199.471L204.891 31.4L206.211 33.5L206.071 30.96V23.6H208.331V37H206.251L200.691 29.08L199.471 27.18L199.631 29.62V37ZM216.946 37.16C213.506 37.16 211.446 34.54 211.446 30.28C211.446 26.34 213.746 23.4 217.906 23.4C220.726 23.4 222.806 24.76 223.726 27.18L221.766 28.58C221.366 26.86 220.086 25.54 217.926 25.54C215.126 25.54 213.846 27.5 213.846 30.28C213.846 33.12 215.146 35.04 217.786 35.04C220.046 35.04 221.046 33.82 221.526 31.96H217.666V30.06H223.786V37H222.346L221.726 31.96C221.626 34.98 219.926 37.16 216.946 37.16Z" fill="#F4F4F4"/>
</g>
<defs>
<filter id="filter0_d_1_358" x="0" y="0" width="266" height="73" filterUnits="userSpaceOnUse" color-interpolation-filters="sRGB">
<feFlood flood-opacity="0" result="BackgroundImageFix"/>
<feColorMatrix in="SourceAlpha" type="matrix" values="0 0 0 0 0 0 0 0 0 0 0 0 0 0 0 0 0 0 127 0" result="hardAlpha"/>
<feOffset dy="5"/>
<feGaussianBlur stdDeviation="4"/>
<feComposite in2="hardAlpha" operator="out"/>
<feColorMatrix type="matrix" values="0 0 0 0 0.466667 0 0 0 0 0.47451 0 0 0 0 0.305882 0 0 0 0.4 0"/>
<feBlend mode="normal" in2="BackgroundImageFix" result="effect1_dropShadow_1_358"/>
<feBlend mode="normal" in="SourceGraphic" in2="effect1_dropShadow_1_358" result="shape"/>
</filter>
</defs>
</svg>
